<svg width="512" height="512" viewBox="0 0 24 24" fill="none" xmlns="http://www.w3.org/2000/svg">
<path d="M13.2499 8.00011H5.75V9.2501H13.2499V8.00011Z" fill="#E93737"/>
<path d="M21.9999 8H14.4999V9.24999H21.9999V8Z" fill="#E93737"/>
<path d="M7.00021 9.24998H5.75022V10.5H7.00021V9.24998Z" fill="#E93737"/>
<path d="M9.4997 9.24998H6.99972V10.5H9.4997V9.24998Z" fill="white"/>
<path d="M11.9998 9.25009H9.49979V10.5001H11.9998V9.25009Z" fill="black"/>
<path d="M13.2501 9.24998H12.0001V10.5H13.2501V9.24998Z" fill="#E93737"/>
<path d="M15.7497 9.25009H14.4997V10.5001H15.7497V9.25009Z" fill="#E93737"/>
<path d="M18.2501 9.24998H15.7501V10.5H18.2501V9.24998Z" fill="white"/>
<path d="M20.7499 9.24998H18.2499V10.5H20.7499V9.24998Z" fill="black"/>
<path d="M22 9.24998H20.7499V10.5H22V9.24998Z" fill="#E93737"/>
<path d="M7.00018 10.5001H2.00021V11.7501H7.00018V10.5001Z" fill="#E93737"/>
<path d="M9.49991 10.5H6.99993V11.75H9.49991V10.5Z" fill="white"/>
<path d="M12 10.5001H9.5V11.7501H12V10.5001Z" fill="black"/>
<path d="M15.7503 10.5001H12.0003V11.7501H15.7503V10.5001Z" fill="#E93737"/>
<path d="M18.2498 10.5001H15.7499V11.7501H18.2498V10.5001Z" fill="white"/>
<path d="M20.7497 10.5001H18.2497V11.7501H20.7497V10.5001Z" fill="black"/>
<path d="M21.9998 10.5001H20.7498V11.7501H21.9998V10.5001Z" fill="#E93737"/>
<path d="M3.24999 11.75H2V13H3.24999V11.75Z" fill="#E93737"/>
<path d="M7.00021 11.75H5.75022V13H7.00021V11.75Z" fill="#E93737"/>
<path d="M9.49991 11.75H6.99993V13H9.49991V11.75Z" fill="white"/>
<path d="M11.9998 11.7499H9.49979V12.9999H11.9998V11.7499Z" fill="black"/>
<path d="M13.2501 11.75H12.0001V13H13.2501V11.75Z" fill="#E93737"/>
<path d="M15.7497 11.75H14.4997V13H15.7497V11.75Z" fill="#E93737"/>
<path d="M18.2501 11.75H15.7501V13H18.2501V11.75Z" fill="white"/>
<path d="M20.7497 11.75H18.2497V13H20.7497V11.75Z" fill="black"/>
<path d="M21.9996 11.7499H20.7496V12.9999H21.9996V11.7499Z" fill="#E93737"/>
<path d="M3.2502 12.9999H2.00021V14.2499H3.2502V12.9999Z" fill="#E93737"/>
<path d="M6.99993 13L5.75 13V14.25H6.99999L6.99993 13Z" fill="#E93737"/>
<path d="M9.49979 12.9999L6.99972 12.9999V14.2499H9.4997L9.49979 12.9999Z" fill="white"/>
<path d="M11.9998 12.9999H9.49979V14.25H11.9998V12.9999Z" fill="black"/>
<path d="M13.2503 12.9999H12.0003V14.2499H13.2503V12.9999Z" fill="#E93737"/>
<path d="M15.7497 13H14.4997V14.25H15.7497V13Z" fill="#E93737"/>
<path d="M18.2501 13H15.7501V14.25H18.2501V13Z" fill="white"/>
<path d="M20.7499 12.9999H18.2499V14.2499H20.7499V12.9999Z" fill="black"/>
<path d="M21.9998 13L20.7497 13L20.7498 14.25H21.9998V13Z" fill="#E93737"/>
<path d="M13.2499 14.25L5.75 14.25V15.5H13.2499V14.25Z" fill="#E93737"/>
<path d="M21.9999 14.2501H14.4999V15.5001H21.9999V14.2501Z" fill="#E93737"/>
</svg>

